<?xml version="1.0" encoding="UTF-8"?>
<svg id="SVGRoot" width="1366px" height="768px" version="1.1" viewBox="0 0 1366 768" xmlns="http://www.w3.org/2000/svg" xmlns:xlink="http://www.w3.org/1999/xlink">
  <defs>
    <linearGradient id="linearGradient1578" x1="642" x2="637" y1="762" y2="4" gradientUnits="userSpaceOnUse">
      <stop stop-color="#e66e39" offset="0"/>
      <stop stop-color="#8d576f" offset=".408"/>
      <stop stop-color="#3b4372" offset=".661"/>
      <stop stop-color="#1e1c44" offset="1"/>
    </linearGradient>
    <filter id="filter2734" x="-.024" y="-.024" width="1.05" height="1.05" color-interpolation-filters="sRGB">
      <feGaussianBlur stdDeviation="0.5"/>
    </filter>
  </defs>
  <g>
    <rect id="fondo" width="1366" height="768" fill="url(#linearGradient1578)"/>
  </g>
  <g transform="translate(-22.2 115)" opacity=".613">
    <g id="luna" transform="matrix(.119 -.0401 .0401 .119 816 209)">
      <path d="m234 0.955c-131 11.2-234 121-234 255 0 141 115 256 256 256 95.8 0 179-52.6 223-130a285 258 0 0 1-280-258 285 258 0 0 1 34.4-123zm-84.6 70.1c27.5 0 49.8 22.3 49.8 49.8 0 27.5-22.3 49.8-49.8 49.8s-49.8-22.3-49.8-49.8c0-27.5 22.3-49.8 49.8-49.8zm-107 171c7.9 0 14.2 6.4 14.2 14.2 0 7.9-6.4 14.2-14.2 14.2-7.9 0-14.2-6.4-14.2-14.2 0-7.9 6.4-14.2 14.2-14.2zm99.5 57c15.7 0 28.4 12.7 28.4 28.4 0.1 15.6-12.7 28.4-28.4 28.4s-28.4-12.7-28.4-28.4 12.7-28.4 28.4-28.4zm206 56.7c27.5 0 49.8 22.3 49.8 49.8s-22.2 49.8-49.8 49.8c-27.5 0-49.8-22.3-49.8-49.8s22.3-49.8 49.8-49.8zm-135 71.2c7.9 0 14.2 6.4 14.2 14.2 0.1 7.9-6.3 14.2-14.2 14.2s-14.2-6.4-14.2-14.2c0-7.9 6.4-14.2 14.2-14.2z" fill="#ccd6dd"/>
      <g fill="#b8c5cd">
        <path d="m149 71c-27.5 0-49.8 22.3-49.8 49.8s22.3 49.8 49.8 49.8 49.8-22.3 49.8-49.8-22.3-49.8-49.8-49.8z"/>
        <path d="m348 356c-27.5 0-49.8 22.3-49.8 49.8s22.3 49.8 49.8 49.8 49.8-22.3 49.8-49.8c0-27.6-22.2-49.8-49.8-49.8z"/>
        <path d="m42.7 242c-7.9 0-14.2 6.4-14.2 14.2 0 7.9 6.4 14.2 14.2 14.2 7.9 0 14.2-6.4 14.2-14.2 0-7.9-6.4-14.2-14.2-14.2z"/>
        <path d="m213 427c-7.9 0-14.2 6.4-14.2 14.2 0 7.9 6.4 14.2 14.2 14.2 7.9 0 14.2-6.4 14.2-14.2 0.1-7.9-6.3-14.2-14.2-14.2z"/>
        <path d="m142 299c-15.7 0-28.4 12.7-28.4 28.4s12.7 28.4 28.4 28.4 28.4-12.7 28.4-28.4c0.1-15.7-12.7-28.4-28.4-28.4z"/>
      </g>
    </g>
  </g>
  <g>
    <g transform="matrix(2,0,0,2,83,-218)">
      <circle id="sol6" cx="300" cy="468" r="300" fill="#c3655d" opacity=".05"/>
      <circle id="sol5" cx="300" cy="468" r="250" fill="#dc714d" opacity=".075"/>
      <circle id="sol4" cx="300" cy="468" r="200" fill="#e77c4e" opacity=".1"/>
      <circle id="sol3" cx="300" cy="468" r="150" fill="#f0874d" opacity=".125"/>
      <circle id="sol2" cx="300" cy="468" r="100" fill="#f69247" opacity=".15"/>
      <circle id="sol1" cx="300" cy="468" r="25" fill="#fbfbfb" filter="url(#filter2734)"/>
    </g>
  </g>
</svg>
