<?xml version="1.0" encoding="UTF-8" standalone="no"?>
<!-- Generator: Adobe Illustrator 19.0.0, SVG Export Plug-In . SVG Version: 6.00 Build 0)  -->

<svg
   xmlns:dc="http://purl.org/dc/elements/1.1/"
   xmlns:cc="http://creativecommons.org/ns#"
   xmlns:rdf="http://www.w3.org/1999/02/22-rdf-syntax-ns#"
   xmlns:svg="http://www.w3.org/2000/svg"
   xmlns="http://www.w3.org/2000/svg"
   xmlns:sodipodi="http://sodipodi.sourceforge.net/DTD/sodipodi-0.dtd"
   xmlns:inkscape="http://www.inkscape.org/namespaces/inkscape"
   version="1.1"
   id="Capa_1"
   x="0px"
   y="0px"
   viewBox="0 0 507.91 507.91"
   style="enable-background:new 0 0 507.91 507.91;"
   xml:space="preserve"
   sodipodi:docname="ArdillaInk.svg"
   inkscape:version="0.92.3 (2405546, 2018-03-11)"><metadata
   id="metadata73"><rdf:RDF><cc:Work
       rdf:about=""><dc:format>image/svg+xml</dc:format><dc:type
         rdf:resource="http://purl.org/dc/dcmitype/StillImage" /><dc:title></dc:title></cc:Work></rdf:RDF></metadata><defs
   id="defs71">
	
	
	
</defs><sodipodi:namedview
   pagecolor="#ffffff"
   bordercolor="#666666"
   borderopacity="1"
   objecttolerance="10"
   gridtolerance="10"
   guidetolerance="10"
   inkscape:pageopacity="0"
   inkscape:pageshadow="2"
   inkscape:window-width="1366"
   inkscape:window-height="705"
   id="namedview69"
   showgrid="false"
   inkscape:zoom="0.46464925"
   inkscape:cx="253.955"
   inkscape:cy="253.955"
   inkscape:window-x="-8"
   inkscape:window-y="-8"
   inkscape:window-maximized="1"
   inkscape:current-layer="Capa_1" />
<g
   id="g10"
   transform="matrix(-1.25,0,0,-1.25,507.91111,45)">
		<g
   id="g8">
			<g
   id="g6">
				<path
   inkscape:connector-curvature="0"
   id="path2"
   d="m 146.148,-184.484 c -14.1,14.1 -56.5,0 -70.7,28.3 -9,17.9 -42.4,-14.2 -28.3,-42.5 14.1,-28.3 56.5,-28.3 84.8,-14.1 28.3,14.2 14.2,28.3 14.2,28.3"
   style="fill:#ad743d" />
				<path
   inkscape:connector-curvature="0"
   id="path4"
   d="m 114.681,7.272 c -53.4,-15.9 -108,-82.1 -106.3,-95.5 1.7,-13.4 3.9,-30 74.8,-41.6 12.6,-2 45.5,-20.9 50.1,-65.8 7.5,-72.9 47.3,-126.3 93.9,-172.9 18.3,0 19,-1.8 39.2,-1.8 20.3,0 41.9,27.4 52.4,53.2 32.4,79.3 23.1,178.7 -62.6,225.6 -34,18.6 -59.3,21.1 -60.6,34.6 -1.5,15.7 -13.9,42.1 -43.4,60.6 5.1,14.9 -5.5,31.7 -12.7,32.3 -7.4,0.7 -23.2,-11.7 -24.8,-28.7"
   style="fill:#ad743d" />
			</g>
		</g>
	</g><path
   inkscape:connector-curvature="0"
   id="path12"
   d="m 352.39361,213.01 c -46.375,-1.25 -64.375,-86 9.625,-97 1.75,-15.375 10.875,-37.25 32.125,-38.75 33.375,-2.5 75.375,30 86.875,106.375 -12.5,8.5 -35.25,16.75 -77,23.625 -15.75,2.5 -56.875,26.125 -62.625,82.25 -7.5,73.625 -41.5,131.375 -85,181.5 -12.875,-13.375 -23.125,-33.25 -28.75,-61.125 -19.5,-98 105.125,-177.25 124.75,-196.875 z"
   style="fill:#d99e82;stroke-width:1.25" /><g
   id="g34"
   transform="matrix(-1.25,0,0,-1.25,507.91111,45)">
		<g
   id="g32">
			<path
   inkscape:connector-curvature="0"
   id="path14"
   d="m 98.784,-68.267 c 0,-8.6 -7,-15.7 -15.7,-15.7 -8.7,0 -15.7,7 -15.7,15.7 0,8.7 7,15.7 15.7,15.7 8.7,0 15.7,-7 15.7,-15.7"
   style="fill:#292f33" />
			<g
   id="g20">
				<path
   inkscape:connector-curvature="0"
   id="path16"
   d="m 66.874,-189.854 c 3.5,-17 -4.4,-48.9 -21.3,-52.3 -16.9,-3.4 -36.6,22.8 -40.1,39.8 -3.5,17 7.5,33.5 24.4,37 17,3.5 33.5,-7.5 37,-24.5"
   style="fill:#662113" />
				<path
   inkscape:connector-curvature="0"
   id="path18"
   d="m 237.468,-114.972 c 46.3,-38 70.1,-83 61.5,-140.7 -3.6,-24.4 9.4,-33.4 19.2,-10.3 6.8,16.2 10.6,112.5 -68.8,162.8 -21.2,13.4 -22.4,-3.2 -11.9,-11.8"
   style="fill:#662113" />
			</g>
			<g
   id="g30">
				<path
   inkscape:connector-curvature="0"
   id="path22"
   d="m 153.821,-203.783 c -18.6,12.1 -61.3,-13.1 -83.2,14.3 -13.8,17.3 -42.6,-25.1 -20.8,-52.5 21.9,-27.4 67.8,-17.6 95.2,4.3 27.4,21.8 8.8,33.9 8.8,33.9"
   style="fill:#ad743d" />
				<path
   inkscape:connector-curvature="0"
   id="path24"
   d="m 275.839,-370.208 h -124.4 c -31.3,0 -31.3,47 15.7,47 h 41.3 c 31.4,0 67.4,-47 67.4,-47"
   style="fill:#ad743d" />
				<path
   inkscape:connector-curvature="0"
   id="path26"
   d="m 183.749,-286.224 c 4.2,40.4 32.7,70.7 63.6,67.5 30.9,-3.2 52.5,-38.7 48.3,-79.1 -4.2,-40.5 -32.7,-70.7 -63.5,-67.5 -31,3.2 -52.6,38.6 -48.4,79.1"
   style="fill:#ad743d" />
				<path
   inkscape:connector-curvature="0"
   id="path28"
   d="m 257.424,-358.916 c 18.8,3.8 56.4,17.2 77.5,102.8 7.4,29.7 15.6,71.4 -9.4,127.6 -21.3,48 -12.3,58.3 8.4,42.8 18,-13.5 22.2,-30.8 24.6,-56.1 1.8,5.3 4.3,11.9 3,24.5 41.5,-23.4 41.5,-76.8 25.6,-127.1 4.4,4.4 9.4,14.8 11.6,24.6 14.6,-65.9 -29.3,-142.5 -108.1,-149.5 -45.3,-4.8 -33.2,10.4 -33.2,10.4"
   style="fill:#ad743d" />
			</g>
		</g>
	</g>
<g
   id="g38">
</g>
<g
   id="g40">
</g>
<g
   id="g42">
</g>
<g
   id="g44">
</g>
<g
   id="g46">
</g>
<g
   id="g48">
</g>
<g
   id="g50">
</g>
<g
   id="g52">
</g>
<g
   id="g54">
</g>
<g
   id="g56">
</g>
<g
   id="g58">
</g>
<g
   id="g60">
</g>
<g
   id="g62">
</g>
<g
   id="g64">
</g>
<g
   id="g66">
</g>
</svg>