<?xml version="1.0" encoding="UTF-8"?>
<!-- Generator: Adobe Illustrator 19.0.0, SVG Export Plug-In . SVG Version: 6.00 Build 0)  -->
<svg enable-background="new 0 0 507.91 507.91" version="1.1" viewBox="0 0 507.9 507.9" xml:space="preserve" xmlns="http://www.w3.org/2000/svg" xmlns:cc="http://creativecommons.org/ns#" xmlns:dc="http://purl.org/dc/elements/1.1/" xmlns:rdf="http://www.w3.org/1999/02/22-rdf-syntax-ns#"><metadata><rdf:RDF><cc:Work rdf:about=""><dc:format>image/svg+xml</dc:format><dc:type rdf:resource="http://purl.org/dc/dcmitype/StillImage"/><dc:title/></cc:Work></rdf:RDF></metadata>
<g transform="matrix(-1.25 0 0 -1.25 507.9 45)">
			<g fill="#ad743d">
				<path d="m146.1-184.5c-14.1 14.1-56.5 0-70.7 28.3-9 17.9-42.4-14.2-28.3-42.5s56.5-28.3 84.8-14.1 14.2 28.3 14.2 28.3"/>
				<path d="m114.7 7.272c-53.4-15.9-108-82.1-106.3-95.5s3.9-30 74.8-41.6c12.6-2 45.5-20.9 50.1-65.8 7.5-72.9 47.3-126.3 93.9-172.9 18.3 0 19-1.8 39.2-1.8 20.3 0 41.9 27.4 52.4 53.2 32.4 79.3 23.1 178.7-62.6 225.6-34 18.6-59.3 21.1-60.6 34.6-1.5 15.7-13.9 42.1-43.4 60.6 5.1 14.9-5.5 31.7-12.7 32.3-7.4 0.7-23.2-11.7-24.8-28.7"/>
			</g>
	</g><path d="m352.4 213c-46.38-1.25-64.38-86 9.625-97 1.75-15.38 10.88-37.25 32.12-38.75 33.38-2.5 75.38 30 86.88 106.4-12.5 8.5-35.25 16.75-77 23.62-15.75 2.5-56.88 26.12-62.62 82.25-7.5 73.62-41.5 131.4-85 181.5-12.88-13.38-23.12-33.25-28.75-61.12-19.5-98 105.1-177.2 124.8-196.9z" fill="#d99e82" stroke-width="1.25"/><g transform="matrix(-1.25 0 0 -1.25 507.9 45)">
			<path d="m98.78-68.27c0-8.6-7-15.7-15.7-15.7s-15.7 7-15.7 15.7 7 15.7 15.7 15.7 15.7-7 15.7-15.7" fill="#292f33"/>
			<g fill="#662113">
				<path d="m66.87-189.9c3.5-17-4.4-48.9-21.3-52.3s-36.6 22.8-40.1 39.8 7.5 33.5 24.4 37c17 3.5 33.5-7.5 37-24.5"/>
				<path d="m237.5-115c46.3-38 70.1-83 61.5-140.7-3.6-24.4 9.4-33.4 19.2-10.3 6.8 16.2 10.6 112.5-68.8 162.8-21.2 13.4-22.4-3.2-11.9-11.8"/>
			</g>
			<g fill="#ad743d">
				<path d="m153.8-203.8c-18.6 12.1-61.3-13.1-83.2 14.3-13.8 17.3-42.6-25.1-20.8-52.5 21.9-27.4 67.8-17.6 95.2 4.3 27.4 21.8 8.8 33.9 8.8 33.9"/>
				<path d="m275.8-370.2h-124.4c-31.3 0-31.3 47 15.7 47h41.3c31.4 0 67.4-47 67.4-47"/>
				<path d="m183.7-286.2c4.2 40.4 32.7 70.7 63.6 67.5s52.5-38.7 48.3-79.1c-4.2-40.5-32.7-70.7-63.5-67.5-31 3.2-52.6 38.6-48.4 79.1"/>
				<path d="m257.4-358.9c18.8 3.8 56.4 17.2 77.5 102.8 7.4 29.7 15.6 71.4-9.4 127.6-21.3 48-12.3 58.3 8.4 42.8 18-13.5 22.2-30.8 24.6-56.1 1.8 5.3 4.3 11.9 3 24.5 41.5-23.4 41.5-76.8 25.6-127.1 4.4 4.4 9.4 14.8 11.6 24.6 14.6-65.9-29.3-142.5-108.1-149.5-45.3-4.8-33.2 10.4-33.2 10.4"/>
			</g>
	</g>
</svg>
