<?xml version="1.0" encoding="UTF-8" standalone="no"?>
<!-- Created with Inkscape (http://www.inkscape.org/) -->

<svg
   xmlns:dc="http://purl.org/dc/elements/1.1/"
   xmlns:cc="http://creativecommons.org/ns#"
   xmlns:rdf="http://www.w3.org/1999/02/22-rdf-syntax-ns#"
   xmlns:svg="http://www.w3.org/2000/svg"
   xmlns="http://www.w3.org/2000/svg"
   xmlns:sodipodi="http://sodipodi.sourceforge.net/DTD/sodipodi-0.dtd"
   xmlns:inkscape="http://www.inkscape.org/namespaces/inkscape"
   width="256px"
   height="256px"
   viewBox="0 0 256 256"
   version="1.1"
   id="SVGRoot"
   inkscape:version="0.92.3 (2405546, 2018-03-11)"
   sodipodi:docname="Nature block 1.svg">
  <sodipodi:namedview
     id="base"
     pagecolor="#ffffff"
     bordercolor="#666666"
     borderopacity="1.0"
     inkscape:pageopacity="0.0"
     inkscape:pageshadow="2"
     inkscape:zoom="1"
     inkscape:cx="127.37058"
     inkscape:cy="46.047348"
     inkscape:document-units="px"
     inkscape:current-layer="layer1"
     showgrid="false"
     inkscape:window-width="1366"
     inkscape:window-height="705"
     inkscape:window-x="-8"
     inkscape:window-y="-8"
     inkscape:window-maximized="1"
     inkscape:grid-bbox="true" />
  <defs
     id="defs1470" />
  <metadata
     id="metadata1473">
    <rdf:RDF>
      <cc:Work
         rdf:about="">
        <dc:format>image/svg+xml</dc:format>
        <dc:type
           rdf:resource="http://purl.org/dc/dcmitype/StillImage" />
        <dc:title></dc:title>
      </cc:Work>
    </rdf:RDF>
  </metadata>
  <g
     id="layer1"
     inkscape:groupmode="layer"
     inkscape:label="Capa 1">
    <g
       id="g2100"
       transform="matrix(0.28319349,0,0,0.28319349,-3.132575,116.78069)">
      <path
         id="path2"
         d="m 393.702,242.352 c 0,0 0,35.424 -43.84,61.872 -12.192,7.344 -27.168,-3.936 -23.648,-17.744 6.496,-25.456 14.096,-60.912 14.096,-87.44 0,-46.336 -52.08,19.136 -52.08,19.136 l 9.76,69.504 c 0,0 -6.288,22.768 -23.36,42.88 -8.32,9.808 -24.144,6.272 -27.648,-6.096 -5.808,-20.416 -8.992,-53.184 9.472,-92.192 31.472,-66.496 -44.08,-7.056 -44.08,-7.056 0,0 20.672,55.12 8.256,114.736 -2.448,11.76 -16.768,16.544 -25.92,8.752 -20.224,-17.216 -48.416,-52.064 -45.808,-111.408 0,0 -1.744,50.128 -13.104,58.432 0,0 -43.312,-22.16 -46.336,-36.272 -3.024,-14.112 0,29.216 0,29.216 0,0 162.192,44.32 77.568,211.552 h 104.768 c 0,0 -64.864,-69.28 16.432,-132.352 81.296,-63.072 95.392,-48.976 114.528,-106.4 19.152,-57.408 -9.056,-19.12 -9.056,-19.12 z"
         style="fill:#9a795f"
         inkscape:connector-curvature="0" />
      <path
         inkscape:connector-curvature="0"
         id="path4"
         d="m 108.918,274.256 c 14.02547,3.40756 38.7057,-22.96134 35.62383,7.6868 7.01361,21.51514 25.05378,-3.36066 39.5381,-1.27985 3.11071,-10.33273 15.89715,-8.73288 17.51245,-21.19236 23.42163,12.98928 47.12918,27.22889 72.95922,29.75912 25.53857,9.06057 46.2133,-17.12502 71.66064,-14.87341 17.5688,1.47077 29.05567,-21.14672 44.49056,-3.28978 16.32638,14.50307 48.58885,20.44427 62.64625,0.68212 9.49997,-10.27555 -12.30145,-32.32723 10.14638,-28.83355 22.04168,-0.54497 1.97464,-34.44734 27.61873,-34.86747 12.53849,-1.92103 25.58401,-8.66671 11.02765,-19.55636 3.95385,-12.02417 5.11983,-28.34231 -14.14933,-23.4299 -17.02753,1.25762 -15.83168,-19.73549 -29.62322,-26.52482 8.73684,-12.29137 4.52119,-26.53174 -13.31102,-27.2435 -9.5932,-6.7962 -6.31146,-22.775306 -22.79911,-24.904165 C 399.79621,77.665433 416.65392,43.81001 390.61287,35.275216 366.4771,18.577393 335.47709,40.20045 313.20638,29.544538 289.69423,29.668929 266.34147,26.752974 243.94329,23.832163 225.81374,34.253131 226.03476,66.923742 203.24057,69.320689 182.122,55.002725 227.1383,41.263064 210.40716,24.137274 195.04572,14.816941 169.16792,4.9837961 157.40008,25.106585 c -9.90406,8.347688 -35.83761,26.154145 -24.31923,38.117328 7.38003,0.649926 36.59533,0.498572 18.02524,9.176306 -19.16644,5.636562 -41.14676,5.535133 -57.862261,1.514802 -20.963467,8.399043 -31.66423,24.745202 -48.042363,38.257039 -21.472832,7.15435 -39.3066815,22.46265 -31.494145,46.6859 0.705548,12.42688 -24.82962,19.21825 -6.226959,29.83744 19.705342,1.48749 34.676228,12.49145 53.919066,16.55999 12.177884,-0.97466 39.170622,-20.74158 41.265912,-8.55525 -15.275091,20.50651 -54.494422,13.40574 -57.62908,42.48442 -8.361235,6.539 -19.551559,14.71225 -4.369455,23.01775 20.942138,5.98314 18.330201,43.36194 46.258866,32.63677 C 94.20314,292.94036 101.0008,289.5218 107.334,285.52"
         style="fill:#8cc63e" />
      <path
         inkscape:connector-curvature="0"
         id="path6"
         d="m 235.91,113.344 c -7.39302,-5.58891 -14.18429,-11.96732 -21.93256,-17.084313 -9.80795,0.904151 -20.68492,3.34842 -29.52263,-2.468347 -19.32696,-7.316133 -41.22596,-0.601621 -57.30983,11.1276 -5.40976,4.71031 -12.39747,3.88861 -18.59685,1.8687 -10.233212,-0.544 -12.484414,15.44829 -23.093867,12.1606 -7.159892,-2.55843 -15.715654,0.0829 -18.01546,7.79728 -2.365153,6.55103 -1.724483,13.73419 -3.787817,20.35795 -0.133308,9.88527 12.390639,9.20884 18.276224,13.88607 7.292196,5.63544 12.626696,15.43757 22.87613,15.82061 10.8726,1.86503 21.49033,-3.63934 28.88083,-11.26103 6.8098,-5.15655 17.44913,-9.20483 24.82623,-2.90226 5.79625,5.36909 6.83456,15.81948 15.66072,17.59174 9.40934,0.27726 14.02946,-9.40006 20.16782,-14.87066 10.58204,-8.76588 25.25036,-6.82064 37.80814,-10.07769 10.20976,-4.23699 -2.27108,-14.42314 1.11818,-20.16978 5.65521,-4.42666 14.79108,-12.4526 6.0798,-19.04976 -1.05897,-1.01148 -2.22275,-1.90779 -3.43506,-2.72671 z"
         style="fill:#7fb239" />
      <path
         inkscape:connector-curvature="0"
         id="path8"
         d="M 410.182,94.128 C 403.82122,90.705756 398.8345,83.218763 400.76051,75.827996 399.61958,58.826115 384.21255,43.924326 367.078,43.872 c 1.96781,8.432341 -10.12397,4.517445 -13.67712,9.015835 -5.13795,6.713421 -15.35142,4.935649 -21.85634,1.284362 -9.98951,-3.36342 -20.09995,-6.348966 -30.15445,-9.508572 -7.84519,0.71126 -8.71755,12.349925 -16.93206,12.230576 -7.33829,2.001867 -16.20314,3.94084 -19.86128,11.444799 -0.79354,7.785773 -5.18878,16.192112 -0.85202,23.678393 4.61911,11.246577 19.30234,15.806917 30.06711,11.011507 9.60247,-1.87233 19.92203,-3.368116 29.30778,0.28181 3.30377,5.9904 -6.53312,16.84525 4.17534,18.72111 11.64297,3.50402 24.12418,3.95168 36.1376,2.60336 6.33049,-0.85039 13.72156,-2.8151 16.47104,-9.27557 2.78739,-6.88747 9.36175,-13.1463 17.29744,-10.08356 6.76589,2.88422 20.05914,-1.34909 13.65959,-10.251785 z"
         style="fill:#7fb239" />
      <path
         inkscape:connector-curvature="0"
         id="path10"
         d="m 284.246,230.192 c -9.71893,-15.04555 -27.51174,-26.10638 -45.8439,-23.83306 -9.50603,2.8399 -19.76603,9.05937 -29.7399,4.4186 -11.68306,-4.03714 -24.22058,-11.47903 -36.81378,-6.57444 -12.16,4.63955 -23.62722,15.16634 -37.5238,11.90717 -8.57526,-1.74853 -18.83974,-4.90069 -26.42481,1.26066 -5.31371,7.16236 -2.23836,18.94725 -11.065606,23.72942 -9.898828,6.63129 -8.321985,23.34303 1.412187,29.5021 7.507449,6.58794 19.352619,1.42182 23.049499,-6.89671 7.35117,-8.46403 18.45764,-16.41738 30.2473,-13.40883 8.38289,3.22417 10.40567,17.74608 20.87098,15.98537 8.82417,-3.28512 8.93418,-16.71797 19.07,-18.07257 10.43962,-2.68532 21.98463,-1.86875 31.53912,3.32312 3.47083,5.91848 18.8571,10.54838 17.24721,-0.52402 2.5214,-8.34061 12.37944,-4.33512 18.16766,-2.33286 8.78163,2.83316 21.40678,3.14695 26.47858,-6.10094 1.65717,-3.96205 1.16354,-8.57463 -0.67074,-12.38301 z"
         style="fill:#7fb239" />
      <path
         inkscape:connector-curvature="0"
         id="path12"
         d="m 468.422,176.928 c -14.87145,5.74952 -30.83509,-4.46643 -38.37626,-17.11636 -6.03016,-8.34481 -17.74117,-10.94446 -27.2164,-7.6658 -14.35658,0.42473 -28.09571,-8.01983 -42.50116,-4.37939 -8.23127,4.20606 -16.47311,15.14121 -26.6857,9.96043 -10.73983,-4.82857 -24.23591,-5.27455 -33.92989,2.17638 -7.5591,4.69379 -17.41197,9.83246 -18.37194,19.70693 6.8703,7.75385 9.92017,17.88342 8.26781,27.77484 4.2779,11.59056 17.97086,13.29068 27.3329,18.99685 6.57978,3.33812 12.18022,10.89087 8.76965,18.38374 -2.42031,9.99335 8.25788,20.58631 17.78951,14.31495 10.50543,-4.48722 19.43167,-15.14266 31.87114,-13.18103 9.02354,1.75665 17.77937,-7.86607 26.36292,-2.31368 5.21073,5.54438 4.74025,15.89833 12.83324,19.14438 9.953,1.17274 16.33953,-9.18336 22.50662,-15.41378 8.58244,-5.84467 1.18765,-16.26717 -5.37543,-20.34725 -5.55354,-3.55445 -11.04755,-9.08858 -9.93753,-16.28171 0.23323,-6.85191 6.6872,-12.60112 13.5953,-11.23613 11.36302,0.48122 24.51778,4.86676 34.37061,-3.04256 5.89833,-5.26588 3.15239,-14.28271 -1.30539,-19.48081 z"
         style="fill:#7fb239" />
      <g
         id="g16">
</g>
      <g
         id="g18">
</g>
      <g
         id="g20">
</g>
      <g
         id="g22">
</g>
      <g
         id="g24">
</g>
      <g
         id="g26">
</g>
      <g
         id="g28">
</g>
      <g
         id="g30">
</g>
      <g
         id="g32">
</g>
      <g
         id="g34">
</g>
      <g
         id="g36">
</g>
      <g
         id="g38">
</g>
      <g
         id="g40">
</g>
      <g
         id="g42">
</g>
      <g
         id="g44">
</g>
    </g>
    <g
       transform="matrix(0.28319349,0,0,0.28319349,124.46147,116.80252)"
       id="g2405">
      <path
         inkscape:connector-curvature="0"
         style="fill:#9a795f"
         d="m 103.83975,242.352 c 0,0 0,35.424 43.84,61.872 12.192,7.344 27.168,-3.936 23.648,-17.744 -6.496,-25.456 -14.096,-60.912 -14.096,-87.44 0,-46.336 52.08,19.136 52.08,19.136 l -9.76,69.504 c 0,0 6.288,22.768 23.36,42.88 8.32,9.808 24.144,6.272 27.648,-6.096 5.808,-20.416 8.992,-53.184 -9.472,-92.192 -31.472,-66.496 44.08,-7.056 44.08,-7.056 0,0 -20.672,55.12 -8.256,114.736 2.448,11.76 16.768,16.544 25.92,8.752 20.224,-17.216 48.416,-52.064 45.808,-111.408 0,0 1.744,50.128 13.104,58.432 0,0 43.312,-22.16 46.336,-36.272 3.024,-14.112 0,29.216 0,29.216 0,0 -162.192,44.32 -77.568,211.552 h -104.768 c 0,0 64.864,-69.28 -16.432,-132.352 -81.296,-63.072 -95.392,-48.976 -114.527995,-106.4 -19.152,-57.408 9.055995,-19.12 9.055995,-19.12 z"
         id="path2363" />
      <path
         style="fill:#8cc63e"
         d="m 108.918,274.256 c 14.02547,3.40756 38.7057,-22.96134 35.62383,7.6868 7.01361,21.51514 25.05378,-3.36066 39.5381,-1.27985 3.11071,-10.33273 15.89715,-8.73288 17.51245,-21.19236 23.42163,12.98928 47.12918,27.22889 72.95922,29.75912 25.53857,9.06057 46.2133,-17.12502 71.66064,-14.87341 17.5688,1.47077 29.05567,-21.14672 44.49056,-3.28978 16.32638,14.50307 48.58885,20.44427 62.64625,0.68212 9.49997,-10.27555 -12.30145,-32.32723 10.14638,-28.83355 22.04168,-0.54497 1.97464,-34.44734 27.61873,-34.86747 12.53849,-1.92103 25.58401,-8.66671 11.02765,-19.55636 3.95385,-12.02417 5.11983,-28.34231 -14.14933,-23.4299 -17.02753,1.25762 -15.83168,-19.73549 -29.62322,-26.52482 8.73684,-12.29137 4.52119,-26.53174 -13.31102,-27.2435 -9.5932,-6.7962 -6.31146,-22.775306 -22.79911,-24.904165 C 399.79621,77.665433 416.65392,43.81001 390.61287,35.275216 366.4771,18.577393 335.47709,40.20045 313.20638,29.544538 289.69423,29.668929 266.34147,26.752974 243.94329,23.832163 225.81374,34.253131 226.03476,66.923742 203.24057,69.320689 182.122,55.002725 227.1383,41.263064 210.40716,24.137274 195.04572,14.816941 169.16792,4.9837961 157.40008,25.106585 c -9.90406,8.347688 -35.83761,26.154145 -24.31923,38.117328 7.38003,0.649926 36.59533,0.498572 18.02524,9.176306 -19.16644,5.636562 -41.14676,5.535133 -57.862261,1.514802 -20.963467,8.399043 -31.66423,24.745202 -48.042363,38.257039 -21.472832,7.15435 -39.3066815,22.46265 -31.494145,46.6859 0.705548,12.42688 -24.82962,19.21825 -6.226959,29.83744 19.705342,1.48749 34.676228,12.49145 53.919066,16.55999 12.177884,-0.97466 39.170622,-20.74158 41.265912,-8.55525 -15.275091,20.50651 -54.494422,13.40574 -57.62908,42.48442 -8.361235,6.539 -19.551559,14.71225 -4.369455,23.01775 20.942138,5.98314 18.330201,43.36194 46.258866,32.63677 C 94.20314,292.94036 101.0008,289.5218 107.334,285.52"
         id="path2365"
         inkscape:connector-curvature="0" />
      <path
         style="fill:#7fb239"
         d="m 235.91,113.344 c -7.39302,-5.58891 -14.18429,-11.96732 -21.93256,-17.084313 -9.80795,0.904151 -20.68492,3.34842 -29.52263,-2.468347 -19.32696,-7.316133 -41.22596,-0.601621 -57.30983,11.1276 -5.40976,4.71031 -12.39747,3.88861 -18.59685,1.8687 -10.233212,-0.544 -12.484414,15.44829 -23.093867,12.1606 -7.159892,-2.55843 -15.715654,0.0829 -18.01546,7.79728 -2.365153,6.55103 -1.724483,13.73419 -3.787817,20.35795 -0.133308,9.88527 12.390639,9.20884 18.276224,13.88607 7.292196,5.63544 12.626696,15.43757 22.87613,15.82061 10.8726,1.86503 21.49033,-3.63934 28.88083,-11.26103 6.8098,-5.15655 17.44913,-9.20483 24.82623,-2.90226 5.79625,5.36909 6.83456,15.81948 15.66072,17.59174 9.40934,0.27726 14.02946,-9.40006 20.16782,-14.87066 10.58204,-8.76588 25.25036,-6.82064 37.80814,-10.07769 10.20976,-4.23699 -2.27108,-14.42314 1.11818,-20.16978 5.65521,-4.42666 14.79108,-12.4526 6.0798,-19.04976 -1.05897,-1.01148 -2.22275,-1.90779 -3.43506,-2.72671 z"
         id="path2367"
         inkscape:connector-curvature="0" />
      <path
         style="fill:#7fb239"
         d="M 410.182,94.128 C 403.82122,90.705756 398.8345,83.218763 400.76051,75.827996 399.61958,58.826115 384.21255,43.924326 367.078,43.872 c 1.96781,8.432341 -10.12397,4.517445 -13.67712,9.015835 -5.13795,6.713421 -15.35142,4.935649 -21.85634,1.284362 -9.98951,-3.36342 -20.09995,-6.348966 -30.15445,-9.508572 -7.84519,0.71126 -8.71755,12.349925 -16.93206,12.230576 -7.33829,2.001867 -16.20314,3.94084 -19.86128,11.444799 -0.79354,7.785773 -5.18878,16.192112 -0.85202,23.678393 4.61911,11.246577 19.30234,15.806917 30.06711,11.011507 9.60247,-1.87233 19.92203,-3.368116 29.30778,0.28181 3.30377,5.9904 -6.53312,16.84525 4.17534,18.72111 11.64297,3.50402 24.12418,3.95168 36.1376,2.60336 6.33049,-0.85039 13.72156,-2.8151 16.47104,-9.27557 2.78739,-6.88747 9.36175,-13.1463 17.29744,-10.08356 6.76589,2.88422 20.05914,-1.34909 13.65959,-10.251785 z"
         id="path2369"
         inkscape:connector-curvature="0" />
      <path
         style="fill:#7fb239"
         d="m 284.246,230.192 c -9.71893,-15.04555 -27.51174,-26.10638 -45.8439,-23.83306 -9.50603,2.8399 -19.76603,9.05937 -29.7399,4.4186 -11.68306,-4.03714 -24.22058,-11.47903 -36.81378,-6.57444 -12.16,4.63955 -23.62722,15.16634 -37.5238,11.90717 -8.57526,-1.74853 -18.83974,-4.90069 -26.42481,1.26066 -5.31371,7.16236 -2.23836,18.94725 -11.065606,23.72942 -9.898828,6.63129 -8.321985,23.34303 1.412187,29.5021 7.507449,6.58794 19.352619,1.42182 23.049499,-6.89671 7.35117,-8.46403 18.45764,-16.41738 30.2473,-13.40883 8.38289,3.22417 10.40567,17.74608 20.87098,15.98537 8.82417,-3.28512 8.93418,-16.71797 19.07,-18.07257 10.43962,-2.68532 21.98463,-1.86875 31.53912,3.32312 3.47083,5.91848 18.8571,10.54838 17.24721,-0.52402 2.5214,-8.34061 12.37944,-4.33512 18.16766,-2.33286 8.78163,2.83316 21.40678,3.14695 26.47858,-6.10094 1.65717,-3.96205 1.16354,-8.57463 -0.67074,-12.38301 z"
         id="path2371"
         inkscape:connector-curvature="0" />
      <path
         style="fill:#7fb239"
         d="m 468.422,176.928 c -14.87145,5.74952 -30.83509,-4.46643 -38.37626,-17.11636 -6.03016,-8.34481 -17.74117,-10.94446 -27.2164,-7.6658 -14.35658,0.42473 -28.09571,-8.01983 -42.50116,-4.37939 -8.23127,4.20606 -16.47311,15.14121 -26.6857,9.96043 -10.73983,-4.82857 -24.23591,-5.27455 -33.92989,2.17638 -7.5591,4.69379 -17.41197,9.83246 -18.37194,19.70693 6.8703,7.75385 9.92017,17.88342 8.26781,27.77484 4.2779,11.59056 17.97086,13.29068 27.3329,18.99685 6.57978,3.33812 12.18022,10.89087 8.76965,18.38374 -2.42031,9.99335 8.25788,20.58631 17.78951,14.31495 10.50543,-4.48722 19.43167,-15.14266 31.87114,-13.18103 9.02354,1.75665 17.77937,-7.86607 26.36292,-2.31368 5.21073,5.54438 4.74025,15.89833 12.83324,19.14438 9.953,1.17274 16.33953,-9.18336 22.50662,-15.41378 8.58244,-5.84467 1.18765,-16.26717 -5.37543,-20.34725 -5.55354,-3.55445 -11.04755,-9.08858 -9.93753,-16.28171 0.23323,-6.85191 6.6872,-12.60112 13.5953,-11.23613 11.36302,0.48122 24.51778,4.86676 34.37061,-3.04256 5.89833,-5.26588 3.15239,-14.28271 -1.30539,-19.48081 z"
         id="path2373"
         inkscape:connector-curvature="0" />
      <g
         id="g2375">
</g>
      <g
         id="g2377">
</g>
      <g
         id="g2379">
</g>
      <g
         id="g2381">
</g>
      <g
         id="g2383">
</g>
      <g
         id="g2385">
</g>
      <g
         id="g2387">
</g>
      <g
         id="g2389">
</g>
      <g
         id="g2391">
</g>
      <g
         id="g2393">
</g>
      <g
         id="g2395">
</g>
      <g
         id="g2397">
</g>
      <g
         id="g2399">
</g>
      <g
         id="g2401">
</g>
      <g
         id="g2403">
</g>
    </g>
  </g>
</svg>
